<svg width="164" height="160" viewBox="0 0 164 160" fill="none" xmlns="http://www.w3.org/2000/svg">
<path fill-rule="evenodd" clip-rule="evenodd" d="M139.659 145.871C141.01 141.356 144.112 138.618 148.691 137.727C150.755 137.044 147.223 132.213 145.726 134.002C143.073 136.197 133.8 143.122 139.659 145.871M116.791 109.503C117.891 108.08 123.812 105.514 122.804 104.023C120.888 102.37 117.675 97.878 115.167 100.764C114.843 101.591 116.574 102.016 115.009 102.438C111.614 103.402 111.579 103.428 113.538 106.235C114.504 107.364 115.394 108.903 116.791 109.503M128.617 128.281C130.869 125.729 132.866 122.952 136.076 121.445C136.785 121.067 137.182 120.443 136.587 119.806C135.34 118.742 134.265 115.705 132.351 117.332C128.479 119.84 122.427 124.636 128.617 128.281M155.254 148.092C154.367 145.701 153.324 141.091 149.849 142.972C146.852 144.71 142.712 147.794 143.175 151.594C143.699 152.799 144.904 151.973 145.678 151.534C148.534 149.471 152.413 149.559 155.254 148.092M131.399 113.832C130.24 112.239 127.192 106.81 124.996 108.656C123.285 110.678 117.948 112.321 119.803 115.477C120.76 116.799 121.937 121.066 123.937 119.067C125.91 116.64 129.837 116.297 131.399 113.832M134.971 138.746C142.745 127.754 148.342 132.666 140.765 124.634C138.569 122.258 135.231 128.594 133.234 129.745C132.253 130.917 130.183 132.143 131.195 133.894C132.331 135.556 132.79 138.187 134.971 138.746M117.473 60.167C118.404 49.6293 110.925 40.1369 103.468 33.4317C93.481 25.6732 78.6072 25.0867 67.1274 29.842C46.7139 37.1268 32.4928 59.6211 44.005 80.1515C48.1453 90.5518 57.4756 95.7445 67.8307 98.4315C95.3527 104.624 117.277 88.8969 117.473 60.167M108.223 101.171C106.758 99.8772 106.04 96.4304 103.881 97.1686C92.2775 103.641 77.8316 105.091 65.2048 100.924C40.6809 95.0927 29.6665 63.8663 43.2513 43.1377C57.9819 17.7943 100.624 13.1453 116.171 40.022C127.981 55.4086 121.907 78.1449 110.163 91.8458C108.692 93.0099 108.926 94.3178 110.025 95.6748C112.736 101.622 114.732 88.6799 124.444 98.451C128.093 101.848 131.285 105.672 134.025 109.838C139.317 118.306 146.892 125.013 151.698 133.803C152.567 137.164 159.51 139.691 157.105 141.549C155.706 143.398 158.102 145.597 158.471 147.545C159.151 149.335 161.455 149.291 162.764 150.455C167.292 155.888 156.188 160.633 151.594 159.93C149.011 159.368 145.632 160.747 143.583 158.726C137.229 149.972 131.312 140.791 125.26 131.731C121.211 125.704 116.231 120.383 112.741 113.975C111.242 110.117 103.731 104.909 108.223 101.171" fill="#393939"/>
<path fill-rule="evenodd" clip-rule="evenodd" d="M17.989 106.062C16.5111 101.911 34.6438 84.7508 34.1943 93.4654C31.9716 95.5054 19.8067 112.113 17.989 106.062" fill="#393939"/>
<path fill-rule="evenodd" clip-rule="evenodd" d="M19.9163 62.221C29.1028 63.9434 3.38523 73.605 0.756282 73.0815C-4.22153 69.7078 16.8889 62.0696 19.9163 62.221" fill="#393939"/>
<path fill-rule="evenodd" clip-rule="evenodd" d="M136.814 12.1271C134.907 17.9279 125.657 27.0578 119.512 27.5619C114.815 24.0281 133.309 12.0814 136.814 12.1271" fill="#393939"/>
<path fill-rule="evenodd" clip-rule="evenodd" d="M95.1127 116.52C94.9172 120.562 94.3332 131.906 89.2757 123.66C85.2846 112.107 94.6618 103.536 95.1127 116.52" fill="#393939"/>
<path fill-rule="evenodd" clip-rule="evenodd" d="M8.54505 28.7124C12.9805 29.4752 17.0502 32.238 20.5463 35.0031C22.8404 36.179 24.5571 41.3633 20.4773 40.3349C17.5255 38.5271 14.6323 36.625 11.7027 34.7821C10.0186 33.7357 8.29726 32.7771 6.33443 32.3139C3.21782 30.4058 5.73016 28.4805 8.54505 28.7124" fill="#393939"/>
<path fill-rule="evenodd" clip-rule="evenodd" d="M57.6451 112.966C56.3613 117.096 53.3485 123.791 48.906 124.913C44.4818 123.725 55.7502 103.579 57.6451 112.966" fill="#393939"/>
<path fill-rule="evenodd" clip-rule="evenodd" d="M45.3408 25.6405C38.261 26.5522 34.1292 8.22973 42.3901 14.1563C44.5525 17.0752 44.0723 21.2697 46.5134 23.8825C47.6842 24.7674 46.2547 25.7163 45.3408 25.6405" fill="#393939"/>
<path fill-rule="evenodd" clip-rule="evenodd" d="M74.0778 12.0635C72.8027 21.2292 64.2262 2.59953 67.4862 0.100345C71.643 -1.10215 73.7139 8.8368 74.0778 12.0635" fill="#393939"/>
<path fill-rule="evenodd" clip-rule="evenodd" d="M151.491 81.0224C151.102 81.4144 150.812 82.1466 150.176 82.0277C147.18 81.0919 144.099 81.7142 141.063 81.5521C128.564 78.8859 143.323 72.1174 151.491 81.0224" fill="#393939"/>
<path fill-rule="evenodd" clip-rule="evenodd" d="M142.219 54.0431C140.345 54.5225 135.985 52.1739 139.175 50.8066C143.374 50.3349 148.696 50.4022 152.363 52.1211C149.229 53.3011 145.543 53.2954 142.219 54.0431" fill="#393939"/>
<path fill-rule="evenodd" clip-rule="evenodd" d="M99.3184 10.068C99.1445 7.49518 101.096 0.0452738 104.001 4.60584C104.223 7.91162 99.7835 19.8238 99.3184 10.068" fill="#393939"/>
<path fill-rule="evenodd" clip-rule="evenodd" d="M78.1002 68.4513C67.8007 57.0845 71.2852 47.9067 65.7155 54.0865C61.792 59.0013 60.8847 65.3334 59.4845 71.2834C58.8074 75.294 76.251 70.1154 78.1002 68.4513M88.8128 62.117C95.1583 58.4988 99.9414 50.9819 98.9057 43.5503C93.5924 40.3987 85.0367 42.304 79.2591 44.6148C78.3687 44.9765 78.3309 45.4781 79.1369 46.1576C84.097 50.3497 86.8566 56.015 88.8128 62.117M61.526 76.0493C54.9109 77.0158 57.426 73.5893 57.3947 68.8836C57.9128 65.749 53.3963 67.6261 51.8096 66.1295C49.9079 63.8313 54.3274 63.1186 55.913 63.2218C58.1447 63.3168 58.5901 63.1055 59.0676 60.6591C59.4701 59.2039 60.398 57.5817 60.3049 56.1024C59.7554 54.723 56.5761 53.8066 55.2274 52.7158C54.0599 52.159 54.7565 50.4209 55.8738 50.3516C58.3976 50.0258 59.6847 52.5505 61.8923 53.1233C65.6 47.5685 70.3914 48.9016 65.1135 42.2739C64.1736 41.1174 65.2501 40.1611 66.3398 39.4788C68.3073 39.3651 68.9291 42.2463 70.2129 43.4362C72.0416 45.3108 74.9347 41.7452 76.9729 41.179C79.5325 39.9875 74.1388 34.459 77.262 33.7688C82.026 33.9692 79.5952 39.0265 82.7827 39.2266C84.7929 38.411 91.2216 39.3575 91.3719 36.9987C90.8917 34.905 89.9235 32.5334 91.747 30.8211C92.279 30.1862 93.3668 30.3634 93.706 31.1472C93.8306 32.5852 95.2915 33.4052 95.0604 34.9291C92.1128 41.0038 100.401 37.0469 103.243 39.3835C105.871 41.1171 101.172 42.0721 102.622 44.2797C104.753 63.6136 78.2142 76.7303 61.526 76.0493" fill="#393939"/>
</svg>
